<svg width="114" height="33" viewBox="0 0 114 33" fill="none" xmlns="http://www.w3.org/2000/svg">
<path d="M11.976 33C11.096 33 10.472 32.424 10.104 31.272L1.224 3.144C1.032 2.536 1.12 1.928 1.488 1.32C1.872 0.711999 2.424 0.407999 3.144 0.407999C3.528 0.407999 3.896 0.535999 4.248 0.792C4.6 1.032 4.856 1.416 5.016 1.944L12.84 26.856H11.784L19.224 2.184C19.4 1.608 19.696 1.176 20.112 0.887999C20.544 0.599998 20.984 0.455998 21.432 0.455998C21.912 0.455998 22.376 0.599998 22.824 0.887999C23.272 1.176 23.576 1.608 23.736 2.184L31.176 26.856H30.12L37.944 1.944C38.12 1.416 38.368 1.04 38.688 0.815998C39.024 0.575998 39.384 0.455998 39.768 0.455998C40.472 0.455998 41.032 0.727999 41.448 1.272C41.864 1.816 41.96 2.44 41.736 3.144L32.856 31.272C32.472 32.424 31.768 33 30.744 33H30.648C29.576 33 28.872 32.424 28.536 31.272L20.808 6.264H21.864L14.088 31.272C13.928 31.848 13.688 32.28 13.368 32.568C13.064 32.856 12.6 33 11.976 33Z" fill="#FF7272"/>
<path d="M49.9924 33C48.6484 33 47.9764 32.328 47.9764 30.984V2.472C47.9764 1.128 48.6484 0.455998 49.9924 0.455998H67.2244C68.5684 0.455998 69.2404 1.128 69.2404 2.472C69.2404 3.816 68.5684 4.488 67.2244 4.488H52.0084V14.568H61.5604C62.9044 14.568 63.5764 15.24 63.5764 16.584C63.5764 17.928 62.9044 18.6 61.5604 18.6H52.0084V28.968H67.2244C68.5684 28.968 69.2404 29.64 69.2404 30.984C69.2404 32.328 68.5684 33 67.2244 33H49.9924ZM78.9143 33C77.5703 33 76.8983 32.328 76.8983 30.984V2.472C76.8983 1.128 77.5703 0.455998 78.9143 0.455998H91.4423C93.9863 0.455998 95.9383 1.128 97.2983 2.472C98.6743 3.816 99.3623 5.736 99.3623 8.232V9.528C99.3623 11.688 98.6823 13.36 97.3223 14.544C99.8663 15.968 101.138 18.568 101.138 22.344V23.976C101.138 26.92 100.354 29.16 98.7863 30.696C97.2343 32.232 94.9943 33 92.0663 33H78.9143ZM80.9303 28.968H92.0663C93.8743 28.968 95.1623 28.584 95.9303 27.816C96.7143 27.032 97.1063 25.752 97.1063 23.976V22.344C97.1063 20.568 96.7303 19.304 95.9783 18.552C95.2263 17.784 93.9223 17.4 92.0663 17.4H80.9303V28.968ZM80.9303 13.368H92.3063C93.4743 13.368 94.2663 13.008 94.6823 12.288C95.1143 11.568 95.3303 10.648 95.3303 9.528V8.232C95.3303 6.84 95.0423 5.872 94.4663 5.328C93.8903 4.768 92.8823 4.488 91.4423 4.488H80.9303V13.368ZM110.155 33C108.875 33 108.235 32.36 108.235 31.08V29.88C108.235 28.632 108.875 28.008 110.155 28.008H111.307C112.523 28.008 113.131 28.632 113.131 29.88V31.08C113.131 32.36 112.523 33 111.307 33H110.155Z" fill="black"/>
</svg>
